Coordinates
version=1
nRows=14
nColumns=36
inDegrees=yes

Units are S.I. units (second, meters, Newtons, ...)
If the header above contains a line with 'inDegrees', this indicates whether rotational values are in degrees (yes) or radians (no).

endheader
time	pelvis_tilt	pelvis_list	pelvis_rotation	pelvis_tx	pelvis_ty	pelvis_tz	hip_flexion_r	hip_adduction_r	hip_rotation_r	knee_angle_r	knee_angle_r_beta	ankle_angle_r	subtalar_angle_r	mtp_angle_r	hip_flexion_l	hip_adduction_l	hip_rotation_l	knee_angle_l	knee_angle_l_beta	ankle_angle_l	subtalar_angle_l	mtp_angle_l	lumbar_extension	lumbar_bending	lumbar_rotation	arm_flex_r	arm_add_r	arm_rot_r	elbow_flex_r	pro_sup_r	arm_flex_l	arm_add_l	arm_rot_l	elbow_flex_l	pro_sup_l
      1.43333330	     -1.26208046	     -1.76855756	     -6.13226716	      0.74617914	      1.31205822	      0.11420271	      1.48276725	      3.02514011	      7.31907387	      9.09028269	      0.15865536	     16.42977682	     -1.71457289	     -7.49999987	      3.45666888	     -3.05633271	      0.58720052	     15.38786006	      0.26856882	     11.80885325	     -5.52892322	     -7.49999987	    -16.98914829	      0.67346976	      5.02627928	     -9.06986267	    -13.55270620	     22.59050474	     14.54103175	     86.72750179	     -7.85874593	    -13.20645639	     28.72387653	     14.52448415	     84.74618933
      1.45000000	     -1.90475613	     -1.81397775	     -6.20126678	      0.74777666	      1.30885940	      0.11406323	      2.44845304	      3.14891205	      7.20091015	      9.63970351	      0.16824457	     16.75793058	     -1.64031638	     -7.49999987	      4.47529724	     -3.18166661	      0.40966307	     16.03424450	      0.27985036	     12.14115389	     -5.55604380	     -7.49999987	    -17.69866709	      0.55576304	      5.15104820	     -9.66454357	    -14.18165110	     26.90174351	     15.03073346	     86.79628145	     -8.49819227	    -13.80182545	     32.86900125	     14.84779843	     84.36722383
      1.46666670	     -2.71545574	     -1.85417513	     -6.20155586	      0.74720657	      1.30573881	      0.11377340	      3.71850486	      3.29046580	      7.05496851	     10.42402557	      0.18193357	     17.18106232	     -1.61751193	     -7.49999987	      5.91292565	     -3.33959219	      0.30494130	     17.09000057	      0.29827678	     12.62233779	     -5.52934763	     -7.49999987	    -18.40265261	      0.47860348	      5.17667402	    -10.40991077	    -14.53477499	     28.69347573	     15.67305024	     85.07015921	     -9.05995077	    -14.09923756	     34.79229870	     15.10887074	     82.89653553
      1.48333330	     -3.59250913	     -1.86794768	     -6.29261954	      0.74893767	      1.30224362	      0.11346208	      5.08610365	      3.40129686	      6.89085572	     11.37576460	      0.19854455	     17.77104609	     -1.46739451	     -7.49999987	      7.48740568	     -3.50022148	      0.03550509	     18.38783496	      0.32092826	     13.11019382	     -5.41876732	     -7.49999987	    -19.05578158	      0.34317449	      5.13887634	    -10.51287314	    -15.07627288	     32.96216080	     16.08696858	     85.08938154	     -9.30472529	    -14.92161568	     39.41214661	     15.90704919	     82.80230057
      1.50000000	     -4.56703804	     -1.93248335	     -6.37183490	      0.74818056	      1.29610713	      0.11326043	      6.70823858	      3.54928491	      6.70892003	     12.57951347	      0.21955393	     18.36455570	     -1.52467358	     -7.49999987	      9.34764275	     -3.76101257	     -0.30253141	     20.03659628	      0.34970458	     13.87297926	     -5.19493407	     -7.49999987	    -19.74525610	      0.34550624	      5.10643395	    -10.49151966	    -15.55694418	     35.02408367	     16.76737224	     83.58700855	     -9.36054889	    -15.27068234	     41.88522505	     16.56459300	     81.17245068
      1.51666670	     -6.04113064	     -1.96979148	     -6.39593222	      0.74388454	      1.29179326	      0.10883766	      9.20399837	      3.66556794	      6.35756854	     14.37048378	      0.25081226	     19.12866000	     -1.67547419	     -7.49999987	     11.93270764	     -4.04369166	     -0.50341127	     21.94148984	      0.38295124	     14.72888804	     -4.89450185	     -7.49999987	    -20.31761533	      0.42541209	      4.84067721	     -9.97628259	    -15.91616042	     35.27466733	     17.11804462	     83.47605261	     -9.29399770	    -15.28053746	     42.38412539	     16.89991829	     81.03416603
      1.53333330	     -8.23519623	     -1.91342870	     -6.59370070	      0.74381842	      1.28131104	      0.10863023	     13.13827637	      3.78622032	      6.12385425	     17.42862573	      0.30418690	     20.17687340	     -1.86281361	     -7.49999987	     15.75364036	     -4.41130183	     -0.94708808	     24.69244544	      0.43096447	     16.03793426	     -4.32467400	     -7.49999987	    -20.56492987	      0.43768102	      4.67628481	     -8.95180071	    -16.29051575	     36.89105430	     17.15267886	     81.59795374	     -8.97903405	    -15.27573689	     44.25619890	     17.31769728	     78.61689005
      1.55000000	    -10.46014086	     -1.63370502	     -6.85754922	      0.74679388	      1.27307214	      0.10878589	     17.39093163	      3.67845824	      5.94918549	     20.95582332	      0.36574811	     21.42723676	     -2.02392521	     -7.49999987	     19.78274092	     -4.61784475	     -1.34524592	     27.92687915	      0.48741599	     17.77108698	     -3.65396725	     -7.49999987	    -20.78808492	      0.10364940	      4.34264002	     -7.99129268	    -16.74544863	     37.05154837	     18.07315105	     81.30471545	     -9.01728318	    -15.42352279	     44.68847897	     18.08533307	     78.19524008
      1.56666670	    -12.64148615	     -1.22745189	     -7.07699969	      0.74761606	      1.26735461	      0.10907274	     21.71810037	      3.48641871	      5.83500302	     24.77949533	      0.43248378	     22.90241609	     -1.82332337	     -7.49999987	     23.96805195	     -4.73588300	     -1.71342652	     31.51610062	      0.55005972	     19.70438183	     -2.87523396	     -7.49999987	    -20.99696192	     -0.31471912	      4.20301835	     -6.72589371	    -16.76229069	     37.26822783	     18.00452483	     81.16815671	     -8.52081336	    -15.38265874	     45.02623236	     18.22910224	     77.74183762
      1.58333330	    -14.14132301	     -0.79816723	     -7.25090190	      0.75600816	      1.25869652	      0.11284093	     24.93598823	      3.28862818	      5.91997075	     28.04905735	      0.48954840	     24.61492208	     -1.30129463	     -7.49999987	     27.10659408	     -4.73326620	     -1.93222608	     34.75426563	      0.60657636	     21.64092293	     -2.10930775	     -7.49999987	    -21.61521212	     -0.90453459	      4.05137858	     -4.99059975	    -16.60749461	     36.97908706	     17.72208150	     80.83548902	     -7.73777219	    -15.20366845	     44.90227149	     17.94161618	     77.18026345
      1.60000000	    -15.73623538	     -0.39146504	     -7.29908738	      0.75582022	      1.25005540	      0.11251264	     28.39005518	      3.16905944	      5.94499342	     31.60917930	      0.55168425	     26.23749783	     -0.66642773	     -7.49999987	     30.39550801	     -4.74096215	     -2.12613746	     38.02423169	      0.66364804	     23.39233955	     -1.25342607	     -7.49999987	    -22.17663858	     -1.50602415	      3.88421495	     -2.77825736	    -16.31177481	     36.06256952	     17.22331589	     78.78797777	     -6.67748011	    -14.93497830	     44.13831331	     17.36789189	     74.78353457
      1.61666670	    -16.93966687	      0.04146869	     -7.27609242	      0.75862185	      1.24450951	      0.11227443	     31.05196209	      2.91230622	      5.85847135	     34.58732541	      0.60366271	     27.96825455	      0.08174088	     -7.49999987	     32.90967213	     -4.54916210	     -2.16931240	     40.71089580	      0.71053917	     24.97300849	     -0.69852775	     -7.49999987	    -23.22654723	     -2.17562559	      3.26878758	      0.28432479	    -15.70890500	     32.02643697	     16.61909733	     77.32582478	     -5.19576982	    -14.55341360	     38.67807522	     16.55482070	     70.78923471
      1.63333330	    -18.22607315	      0.54064840	     -7.24409292	      0.75811536	      1.23620087	      0.11220681	     33.93535026	      2.52741004	      5.64332729	     37.91662569	      0.66176996	     29.76008339	      0.86221062	     -7.49999987	     35.46116616	     -4.28659140	     -2.27320604	     43.37592936	      0.75705278	     26.72409114	      0.02584796	     -7.49999987	    -24.14491140	     -2.83191333	      2.69823635	      3.57891258	    -15.18917507	     29.07308877	     16.38604006	     75.73437867	     -2.73404235	    -14.50026075	     34.55414914	     15.90149474	     68.28552956
      1.65000000	    -19.06944498	      0.95716529	     -7.25664929	      0.76630520	      1.22813018	      0.10934002	     35.89634955	      2.01579963	      5.12844056	     40.70472609	      0.71043149	     31.47600541	      1.90509063	     -7.49999987	     37.13692346	     -3.92171891	     -2.23174094	     45.40914587	      0.79253911	     28.59521169	      0.66221520	     -7.49999987	    -25.11514190	     -3.36291224	      2.26407166	      7.15912212	    -14.78077203	     26.76055414	     16.91296437	     74.65243054	      0.06131643	    -14.31385475	     32.35076139	     15.24912308	     67.29201279
